<svg height="40" width="117" xmlns="http://www.w3.org/2000/svg"><g fill-rule="evenodd"><path d="m8.527 32.04.03-24.451h4.151c-.003 0 .005 6.81.025 20.433 12.544.003 18.816.003 18.816 0 .002 2.68.002 4.018 0 4.018z"/><path d="m16.202 24.452v-16.863h7.498c2.2 0 3.92.48 5.162 1.443 1.241.963 1.862 2.319 1.862 4.067 0 1.123-.27 2.078-.812 2.864s-1.288 1.395-2.238 1.829l3.875 6.66h-5.109c-.003 0-1.05-1.964-3.14-5.89h-2.4l-.008 5.89h-4.691zm7.474-9.428c.716 0 1.262-.172 1.637-.517s.562-.822.562-1.432-.187-1.099-.562-1.468-.92-.553-1.637-.553h-2.776v3.97h2.775z"/><path d="m6.441 0h27.195c3.558 0 6.442 2.851 6.442 6.369v26.891c0 3.518-2.884 6.369-6.442 6.369h-27.195c-3.557 0-6.441-2.851-6.441-6.369v-26.89c0-3.519 2.884-6.37 6.441-6.37zm.498 2.536c-2.298 0-4.16 1.842-4.16 4.114v26.118c0 2.272 1.862 4.113 4.16 4.113h26.181c2.298 0 4.16-1.841 4.16-4.113v-26.118c0-2.272-1.862-4.114-4.16-4.114h-26.18zm39.108 2.523h1.152v10.586h6.815v.965h-7.967v-11.55zm9 2.247h1.134v9.304h-1.134zm-.266-1.456a.775.775 0 0 1 .8-.76c.227 0 .418.076.57.228.153.15.23.328.23.532a.717.717 0 0 1 -.23.542.808.808 0 0 1 -.58.218.772.772 0 0 1 -.566-.223.728.728 0 0 1 -.224-.537zm12.5 1.456-4.307 9.304h-1.085l-4.308-9.304h1.211l3.635 7.945 3.643-7.945h1.212zm.468 4.648c0-.68.136-1.32.41-1.918a4.8 4.8 0 0 1 1.134-1.558 5.41 5.41 0 0 1 1.695-1.044 5.714 5.714 0 0 1 2.106-.381c.75 0 1.451.127 2.106.381a5.324 5.324 0 0 1 1.7 1.044c.48.441.857.96 1.134 1.558s.416 1.237.416 1.918c0 .08-.004.145-.01.197l-.02.152h-9.567c.046.558.195 1.062.45 1.512.254.451.576.834.967 1.15.39.315.83.56 1.32.73.488.172.993.258 1.514.258.397 0 .777-.046 1.138-.138a4.29 4.29 0 0 0 1.012-.395c.313-.172.594-.377.845-.616.251-.24.464-.506.64-.8h1.222c-.195.41-.453.79-.772 1.14-.32.35-.687.651-1.104.906a5.579 5.579 0 0 1 -1.383.597 5.834 5.834 0 0 1 -1.608.216 5.714 5.714 0 0 1 -2.106-.381 5.365 5.365 0 0 1 -1.695-1.048 4.852 4.852 0 0 1 -1.134-1.563 4.55 4.55 0 0 1 -.41-1.917zm5.375-4.015c-.56 0-1.085.09-1.574.268s-.92.426-1.295.743a4.018 4.018 0 0 0 -.923 1.126c-.241.434-.391.903-.45 1.407h8.434a3.816 3.816 0 0 0 -.445-1.407 3.985 3.985 0 0 0 -.913-1.126 4.198 4.198 0 0 0 -1.28-.743c-.483-.179-1-.268-1.554-.268zm-21.529 21.591h-2.16v4.69h-3.388v-14.4h6.37c.763 0 1.465.119 2.107.355a4.987 4.987 0 0 1 1.662.995c.467.427.83.94 1.09 1.536s.39 1.258.39 1.985c0 .508-.063.987-.192 1.435-.128.448-.31.856-.545 1.223s-.52.691-.855.974c-.335.282-.71.519-1.123.71l3.068 5.188h-3.89zm.684-2.88c.278 0 .538-.048.78-.143.243-.095.455-.228.636-.397.182-.17.325-.374.428-.614s.155-.508.155-.805c0-.29-.052-.556-.155-.8a1.904 1.904 0 0 0 -1.064-1.042 2.046 2.046 0 0 0 -.78-.149h-2.844v3.95zm5.834 2.086c0-.805.15-1.562.449-2.271.299-.71.721-1.33 1.266-1.859a6.032 6.032 0 0 1 1.946-1.254c.752-.307 1.584-.461 2.496-.461.92 0 1.759.154 2.518.46a6.005 6.005 0 0 1 1.956 1.255 5.723 5.723 0 0 1 1.726 4.13c0 .226-.008.402-.026.53a14.08 14.08 0 0 1 -.06.38h-8.99c.093.346.237.657.433.932a3.151 3.151 0 0 0 1.53 1.154c.302.106.614.16.935.16.52 0 .972-.11 1.357-.33.385-.218.677-.497.877-.836h3.57a5.601 5.601 0 0 1 -1.988 2.647 6.28 6.28 0 0 1 -1.705.869 6.604 6.604 0 0 1 -2.133.328c-.905 0-1.735-.154-2.49-.46a5.956 5.956 0 0 1 -1.946-1.255 5.7 5.7 0 0 1 -1.267-1.859 5.697 5.697 0 0 1 -.454-2.26zm6.179-3.25c-.692 0-1.276.172-1.754.518a2.928 2.928 0 0 0 -1.037 1.366h5.452a3.01 3.01 0 0 0 -.983-1.36c-.45-.35-1.009-.525-1.678-.525zm8.923-5.274 2.373-.021v3.05h3.218v2.805h-3.218v3.855c0 .338.04.619.123.841.082.223.192.4.331.53.14.13.305.22.497.27.193.05.4.074.62.074h1.85l-.022 2.679h-2.147a9.04 9.04 0 0 1 -1.759-.164 3.472 3.472 0 0 1 -1.448-.636c-.414-.314-.74-.755-.978-1.323-.24-.569-.359-1.315-.359-2.24v-3.886h-1.763v-2.499l1.678-.635 1.005-2.7zm6.304 8.524c0-.805.139-1.562.417-2.271a5.546 5.546 0 0 1 1.186-1.859 5.552 5.552 0 0 1 1.871-1.254c.734-.307 1.557-.461 2.47-.461.734 0 1.393.118 1.977.355.585.236 1.08.517 1.486.841l.14-.847h2.81v10.98h-2.81l-.15-.836c-.414.325-.91.604-1.492.837-.58.233-1.234.349-1.961.349-.905 0-1.725-.154-2.46-.46a5.651 5.651 0 0 1 -1.875-1.25 5.448 5.448 0 0 1 -1.192-1.853 6.17 6.17 0 0 1 -.417-2.271zm3.303-.01c0 .458.079.875.235 1.249.157.374.37.695.636.963.268.268.581.475.941.62.36.144.743.217 1.15.217.406 0 .789-.073 1.149-.217.36-.145.673-.35.94-.615a2.84 2.84 0 0 0 .63-.963c.154-.378.23-.796.23-1.255 0-.452-.078-.863-.234-1.233a2.932 2.932 0 0 0 -.636-.953 2.812 2.812 0 0 0 -.941-.614 3.051 3.051 0 0 0 -1.15-.217c-.413 0-.8.072-1.16.217-.36.144-.67.349-.935.614a2.906 2.906 0 0 0 -.625.953 3.2 3.2 0 0 0 -.23 1.233zm10.912-5.486h3.324v10.98h-3.324zm.014-3.037c0-.222.039-.434.116-.635a1.557 1.557 0 0 1 .857-.887c.202-.088.428-.131.678-.131s.475.043.677.13a1.557 1.557 0 0 1 .856.887c.078.202.117.414.117.636 0 .228-.039.441-.116.64a1.515 1.515 0 0 1 -.335.519 1.62 1.62 0 0 1 -.526.352 1.725 1.725 0 0 1 -.682.131 1.67 1.67 0 0 1 -.67-.13 1.544 1.544 0 0 1 -.517-.358 1.668 1.668 0 0 1 -.455-1.154zm5.274-1.641h3.304v15.658h-3.304v-15.66zm12.012 6.143c.84 0 1.66.213 2.459.64a4.571 4.571 0 0 1 1.869 1.832c.446.794.669 1.623.669 2.485 0 .853-.22 1.674-.66 2.462a4.626 4.626 0 0 1 -1.848 1.835 5.099 5.099 0 0 1 -2.489.653 5.099 5.099 0 0 1 -2.488-.653 4.648 4.648 0 0 1 -1.852-1.835 4.966 4.966 0 0 1 -.663-2.462c0-.862.224-1.69.673-2.485a4.593 4.593 0 0 1 1.872-1.832c.8-.427 1.619-.64 2.458-.64zm-.063.752c-.703 0-1.388.179-2.054.536a3.862 3.862 0 0 0 -1.562 1.532 4.152 4.152 0 0 0 -.564 2.074c0 .715.184 1.4.554 2.055.369.655.885 1.165 1.549 1.531a4.243 4.243 0 0 0 2.077.55c.721 0 1.413-.184 2.077-.55a3.89 3.89 0 0 0 1.546-1.531c.367-.656.55-1.34.55-2.055 0-.719-.186-1.41-.56-2.074a3.835 3.835 0 0 0 -1.563-1.532 4.3 4.3 0 0 0 -2.05-.536zm-2.155 6.898v-5.267h1.812c.62 0 1.068.048 1.345.146.277.097.498.267.663.509.164.242.246.5.246.772 0 .385-.137.72-.412 1.005-.275.286-.64.446-1.095.48.187.078.336.171.449.28.212.207.472.555.78 1.043l.642 1.032h-1.04l-.467-.83c-.368-.653-.665-1.062-.89-1.226-.156-.122-.383-.182-.682-.182h-.5v2.238zm.886-2.885h1.074c.514 0 .864-.075 1.05-.226.188-.15.281-.35.281-.599a.722.722 0 0 0 -.135-.429.804.804 0 0 0 -.375-.283c-.16-.062-.456-.093-.888-.093h-1.007z"/></g></svg>